<svg xmlns="http://www.w3.org/2000/svg" width="600" height="573.841" viewBox="0 0 600 573.841"><path d="M77.043 265.495a1.926 1.926 0 0 0-.12-.359" fill="none" stroke="#fff" stroke-width="5.973" stroke-miterlimit="10"/><radialGradient id="a" cx="291.007" cy="271.758" r="32.075" gradientTransform="matrix(5.97288 0 0 5.97288 -1491.863 -1426.82)" gradientUnits="userSpaceOnUse"><stop offset=".255" stop-color="#dae3a4"/><stop offset=".817" stop-color="#a4c23e"/><stop offset=".857" stop-color="#9ebd3a"/><stop offset=".91" stop-color="#8daf30"/><stop offset=".971" stop-color="#71971e"/><stop offset="1" stop-color="#618a14"/></radialGradient><path d="M432.967 186.652c0 25.863-5.256 50.471-14.753 72.81 0 0 0 .06-.06.12-1.015 3.284-22.1 66.418-100.464 117.605h-56.025c-36.255 0-65.761-29.506-65.761-65.82V115.515h-41.81v195.85c0 32.493 14.454 61.64 37.27 81.35-92.34-57.936-112.529-121.07-114.32-127.102v-.12c-11.17-23.95-17.441-50.65-17.441-78.842C59.603 83.56 143.223 0 246.255 0c103.092 0 186.712 83.56 186.712 186.652z" fill="url(#a)"/><path d="M107.943 525.918c-.851-.992-2.181-2.17-4.077-2.17-1.8 0-3.316.787-4.357 2.07l-30.903 38.16c-1.04 1.282-1.895 2.566-1.895 4.339 0 3.056 2.37 5.524 5.308 5.524 2.181 0 3.604-1.482 4.835-3.057l3.792-4.929c1.137-1.481 2.843-2.963 4.835-2.963h36.304c1.61 0 3.599 1.482 4.643 2.765l4.55 5.524c1.137 1.376 2.554 2.66 4.456 2.66 2.934 0 5.308-2.468 5.308-5.524 0-1.674-.951-3.057-1.995-4.34l-30.804-38.06zm4.643 27.507h-17.82c-.944 0-1.799-.886-1.799-1.872 0-.49.19-.886.38-1.184l9.099-10.843c.38-.397.758-.694 1.327-.694s1.044.198 1.327.595l8.91 10.942c.192.298.379.694.379 1.184 0 .986-.852 1.872-1.803 1.872zm53.692-20.805h27.391c4.264 0 9.193 1.68 11.182 4.538.857 1.283 2.467 2.759 4.649 2.759 2.934 0 5.308-2.369 5.308-5.425 0-1.575-.665-2.858-1.423-3.844-3.32-4.439-8.72-6.9-14.6-6.9h-36.777c-7.769 0-14.121 6.603-14.121 14.693v20.707c0 8.084 6.352 14.693 14.121 14.693h36.777c5.88 0 11.28-2.567 14.6-7 .758-.986 1.423-2.17 1.423-3.75 0-3.057-2.374-5.524-5.308-5.524-2.182 0-3.792 1.58-4.649 2.864-1.989 2.858-7.011 4.631-11.182 4.631h-27.11c-4.358 0-8.056-3.745-8.056-8.183v-16.17c0-4.438 3.505-8.09 7.775-8.09zm126.755-8.773c-2.934 0-5.308 2.362-5.308 5.419v13.019c0 .985-.759 1.773-1.704 1.773h-49.387c-.945 0-1.703-.788-1.703-1.773v-13.02c0-3.056-2.368-5.418-5.308-5.418s-5.308 2.362-5.308 5.419v39.15c0 3.156 2.462 5.425 5.308 5.425 2.94 0 5.308-2.468 5.308-5.524l-.093-12.82c0-.987.851-1.774 1.796-1.774l49.288-.1c.951 0 1.71.887 1.71 1.873l.093 12.92c0 3.056 2.374 5.425 5.308 5.425 2.94 0 5.308-2.369 5.308-5.425v-39.25c0-3.155-2.462-5.32-5.308-5.32zm30.844 8.773h26.254c4.27 0 9.198 1.68 11.187 4.538.852 1.283 2.462 2.858 4.643 2.858 2.94 0 5.308-2.468 5.308-5.524 0-1.575-.665-2.759-1.423-3.745-3.313-4.439-8.714-7-14.594-7h-42.084c-2.94 0-5.308 2.462-5.308 5.519v39.15c0 3.056 2.467 5.425 5.308 5.425h42.084c5.88 0 11.28-2.468 14.594-6.9.758-.986 1.423-2.17 1.423-3.751 0-3.057-2.368-5.524-5.308-5.524-2.181 0-3.791 1.58-4.643 2.864-1.989 2.858-6.918 4.532-11.088 4.532h-26.254c-3.033 0-5.594-2.56-5.594-5.716s2.462-5.722 5.495-5.722h27.49c2.368 0 5.495-1.674 5.495-4.73 0-3.057-3.033-4.836-5.495-4.836h-27.39c-3.034 0-5.595-2.56-5.595-5.716s2.462-5.722 5.495-5.722zm125.623-8.872c-2.94 0-5.308 2.461-5.308 5.518l.093 29.386-52.035-33.032c-1.417-.886-2.368-1.872-4.17-1.872h-1.99c-2.94 0-5.307 2.461-5.307 5.518v39.15c0 3.156 2.467 5.425 5.308 5.425 2.94 0 5.307-2.468 5.307-5.524v-29.485l51.942 33.136c1.424.887 2.462 1.873 4.264 1.873h1.896c2.94 0 5.308-2.468 5.308-5.524v-39.15c0-3.156-2.462-5.42-5.308-5.42zm53.686 2.17c-.852-.992-2.176-2.17-4.072-2.17a5.514 5.514 0 0 0-4.363 2.07l-30.896 38.16c-1.045 1.282-1.896 2.566-1.896 4.339 0 3.056 2.368 5.524 5.308 5.524 2.181 0 3.599-1.482 4.83-3.057l3.79-4.929c1.144-1.481 2.847-2.963 4.836-2.963h36.304c1.61 0 3.599 1.482 4.643 2.765l4.55 5.524c1.137 1.376 2.56 2.66 4.456 2.66 2.94 0 5.308-2.468 5.308-5.524 0-1.674-.95-3.057-1.989-4.34l-30.81-38.06zm4.649 27.507h-17.82c-.95 0-1.802-.886-1.802-1.872 0-.49.192-.886.379-1.184l9.1-10.843c.378-.397.757-.694 1.33-.694.565 0 1.037.198 1.323.595l8.907 10.942c.192.298.385.694.385 1.184 0 .986-.858 1.872-1.802 1.872zm86.764 9.467h-39.15c-.852 0-1.704-.886-1.704-2.07v-31.655c0-3.057-2.461-5.42-5.308-5.42-2.94 0-5.308 2.462-5.308 5.519v39.15c0 3.156 2.462 5.425 5.308 5.425h46.255c2.94 0 5.308-2.468 5.308-5.524 0-3.156-2.56-5.425-5.401-5.425zm-540.411 1.99H8.959v-96.098a4.48 4.48 0 0 0-8.959 0v100.577a4.48 4.48 0 0 0 4.48 4.48h49.708a4.48 4.48 0 0 0 0-8.96z" fill="#a5a5a7"/><path d="M131.053 489.375l-8.557-16.233h-4.538l10.995 20.386v12.622h4.177v-12.803l10.995-20.205h-4.468l-8.604 16.233zm31.247-13.049c2.362 0 4.865.601 7.495 1.809l1.674-3.523c-2.59-1.295-5.628-1.943-9.122-1.943-3.25 0-6.078.694-8.475 2.077-2.404 1.388-4.235 3.36-5.49 5.914-1.253 2.56-1.883 5.541-1.883 8.942 0 5.419 1.312 9.607 3.937 12.564s6.37 4.433 11.234 4.433c1.686 0 3.173-.093 4.468-.28 1.295-.187 2.642-.537 4.042-1.05v-3.61c-2.934.869-5.576 1.306-7.927 1.306-3.64 0-6.445-1.155-8.416-3.465-1.972-2.31-2.958-5.593-2.958-9.851 0-4.124 1.015-7.379 3.045-9.753 2.036-2.38 4.824-3.57 8.376-3.57zm15.078 29.824h18.444v-3.657h-14.29V490.71h13.456v-3.616H181.53v-10.295h14.29v-3.657h-18.443v33.008zm11.946-38.946c1.4-1.458 2.426-2.672 3.091-3.634v-.473h-4.9a39.43 39.43 0 0 1-2.222 3.757c-.88 1.335-1.61 2.362-2.181 3.085v.56h2.689c.945-.735 2.123-1.831 3.523-3.295zm13.765 38.946h18.444v-3.657h-14.29V490.71h13.456v-3.616h-13.456v-10.295h14.29v-3.657H203.09v33.008zm85.592-33.528c-4.923 0-8.702 1.482-11.345 4.44-2.642 2.957-3.96 7.121-3.96 12.493 0 5.42 1.33 9.613 3.984 12.588 2.654 2.975 6.416 4.456 11.275 4.456 4.8 0 8.539-1.51 11.21-4.538 2.672-3.021 4.008-7.174 4.008-12.459 0-5.314-1.33-9.473-3.996-12.477-2.666-2.998-6.387-4.503-11.176-4.503zm8.015 27c-1.838 2.258-4.52 3.39-8.061 3.39-3.553 0-6.253-1.143-8.102-3.43-1.855-2.292-2.777-5.617-2.777-9.98 0-4.351.922-7.659 2.777-9.922 1.849-2.269 4.567-3.4 8.148-3.4 3.535 0 6.218 1.12 8.038 3.354 1.82 2.234 2.73 5.558 2.73 9.968 0 4.427-.916 7.764-2.753 10.02zm30.797-5.12c0 2.753-.735 4.858-2.199 6.322-1.47 1.459-3.564 2.188-6.288 2.188-2.893 0-5.057-.735-6.492-2.21-1.44-1.477-2.158-3.565-2.158-6.254v-21.406h-4.176v21.266c0 3.78 1.097 6.755 3.296 8.93s5.29 3.261 9.28 3.261c4.036 0 7.186-1.073 9.46-3.226 2.27-2.152 3.407-5.11 3.407-8.871v-21.36h-4.13v21.36zm37.103-1.144c-.571-1.102-1.464-2.082-2.665-2.934s-3.033-1.726-5.483-2.63c-2.048-.753-3.552-1.423-4.51-2.007-.956-.589-1.644-1.236-2.076-1.954-.425-.717-.641-1.615-.641-2.7 0-1.517.554-2.701 1.656-3.54 1.109-.847 2.643-1.267 4.597-1.267 2.438 0 5.074.59 7.903 1.762l1.283-3.57c-2.764-1.23-5.797-1.849-9.093-1.849-3.161 0-5.71.758-7.647 2.28-1.93 1.523-2.899 3.565-2.899 6.143 0 2.391.653 4.345 1.966 5.856 1.306 1.51 3.488 2.829 6.544 3.943 2.153.782 3.763 1.482 4.824 2.094 1.062.618 1.814 1.283 2.27 1.99.448.705.676 1.609.676 2.711 0 1.651-.624 2.958-1.878 3.903-1.249.95-3.104 1.423-5.577 1.423-1.44 0-2.998-.175-4.66-.52a23.892 23.892 0 0 1-4.59-1.423v2.603l-3.506-.794V476.46l3.884-.922v-2.397h-11.922v2.397l3.885.922v26.417l-3.885.88v2.392h11.922v-.994c2.114.939 4.975 1.443 8.691 1.443 3.704 0 6.597-.822 8.674-2.479 2.076-1.656 3.115-3.92 3.115-6.795 0-1.54-.286-2.858-.858-3.967zm-264.052-30.366h-5.433v43.158h24.294v-4.841h-18.86v-38.317zm150.865 0h-5.436v43.158h24.294v-4.841h-18.858v-38.317z" fill="#adc74a"/></svg>